<?xml version="1.0" standalone="no"?>
<svg style="width: 487.5px; height: 487.5px; justify-content: center; align-self: center; transform: scale(1);" viewBox="-350 -150 1500 1500" xmlns="http://www.w3.org/2000/svg"><rect x="-350" y="-150" width="100%" height="100%" fill="transparent" rx="30"></rect><g transform="rotate(0 421.69166374206543 597.6683769226074)"><g transform="translate(0 459)"><path d="M494.93 22.0917C492.662 14.1097 463.302 1.6206 434.17 0.182979C398.421 -1.58116 361.568 9.68675 357.807 22.0917C350.98 44.6057 347.993 73.7643 331.537 90.7514C315.41 107.399 287.155 107.732 239.88 118.059L236.961 118.704C204.271 126.014 185.698 200.87 181.244 343.271C530.208 348.677 704.69 342.54 704.69 324.861C704.69 298.341 651.149 184.529 634.846 156.609C618.543 128.689 561.521 139.348 534.812 127.657C508.102 115.966 499.98 39.8687 494.93 22.0917ZM726.472 446.767L10 389.888L0 567.066L9 748.678L771.947 747.349L770.896 743.634C753.91 683.298 745.417 639.296 745.417 611.63L745.415 610.775C745.292 582.872 739.228 529.826 727.222 451.636L726.472 446.767Z" transform="translate(37.99993 -39.09181)" fill="#FFFFFF" fill-rule="evenodd" stroke="none"></path><path d="M369.237 0.206767C369.057 -0.153233 368.587 0.00676706 368.467 0.306767C365.487 7.82677 363.807 15.7368 361.007 23.3368C358.197 30.9568 354.527 38.2168 350.386 45.1868C342.727 58.0868 331.707 70.3668 318.147 77.2568C305.136 81.3568 315.176 102.817 326.447 94.8568C328.386 93.4868 330.297 92.0868 332.157 90.6668C345.667 80.3368 357.067 68.3968 364.636 52.6568C371.867 37.6068 376.886 15.9868 369.237 0.206767ZM509.397 22.5468C509.278 22.4868 509.167 22.5125 509.057 22.5968C506.975 24.2301 507.012 26.7607 506.895 29.2372L506.743 31.9704C506.572 35.2759 506.482 38.5813 506.687 41.8868C507.217 50.2468 508.488 58.7968 510.647 66.8968C512.787 74.9168 515.497 82.6868 518.727 90.3368L518.887 90.7176C522.192 98.6131 525.486 108.056 534.127 111.137C535.967 111.797 537.907 111.697 539.697 111.057C532.137 143.647 504.787 170.717 472.767 180.717C429.227 194.327 378.117 181.577 343.367 152.757C333.887 144.897 326.097 135.577 320.147 124.797C314.597 114.727 309.297 104.737 300.907 96.9568C302.317 94.2268 302.327 90.8468 299.587 88.0468C298.757 87.1968 297.867 86.4068 296.927 85.6668C296.947 85.6568 296.977 85.6468 296.997 85.6468C297.347 85.5668 297.357 84.9968 296.997 84.9268L295.528 84.6368L295.517 84.6368L295.205 84.4253C289.471 80.5916 282.439 79.1203 276.517 82.6168C269.217 82.8268 261.967 83.8068 254.787 85.0668C240.287 87.6068 226.447 92.3168 213.067 98.4068C185.927 110.737 161.367 128.057 138.957 147.587C96.7066 184.397 62.1566 230.347 38.1666 280.957C31.3466 295.357 25.3266 310.137 20.1366 325.197C14.9666 340.177 9.16662 356.317 7.89662 372.187C7.50662 377.017 10.6566 379.677 14.3566 380.177C15.4312 381.759 16.9068 383.227 18.2684 384.495L18.9966 385.167C16.5466 393.397 15.3866 402.347 13.8766 410.577L13.2318 414.166C11.5507 423.741 10.1611 433.359 8.67662 442.977L8.29791 445.454C5.03707 466.93 2.34292 488.552 1.20662 510.257C-1.18338 555.577 -0.000624475 600.957 4.55662 646.107C5.87662 659.197 7.40662 672.267 9.31662 685.287L9.5119 686.646C11.235 698.901 12.0677 711.758 15.3366 723.677C18.0666 733.617 34.6866 732.037 33.8466 721.167C32.9666 709.897 30.0966 698.777 28.5066 687.587C26.9666 676.697 25.7166 665.737 24.5366 654.807C22.1266 632.587 20.4566 610.277 19.2866 587.967C16.9266 543.397 17.1366 498.607 18.3566 454.007C18.6316 443.782 19.24 433.598 19.9154 423.405L20.3266 417.287C20.7566 410.857 21.2776 404.447 21.7166 398.017C21.9366 394.767 22.3066 391.497 22.5466 388.217C26.5966 391.337 31.2066 393.717 35.8266 395.827C47.6288 401.203 60.2759 405.036 72.7512 408.631L75.6266 409.457C89.1466 413.327 102.757 416.827 116.517 419.787C123.387 421.257 130.278 422.647 137.187 423.937C141.447 424.727 146.717 426.367 151.657 426.837L151.687 432.617L151.714 435.722C151.778 440.897 151.932 446.071 152.097 451.243L152.297 457.447C152.317 458.102 152.322 458.799 152.32 459.531L152.307 461.817C151.507 468.247 150.767 474.687 150.057 481.137C147.797 501.807 145.887 522.477 145.267 543.267C144.047 584.057 145.017 624.807 147.677 665.517C148.427 677.007 149.437 688.477 150.587 699.947L150.952 703.633C151.991 713.868 153.525 725.552 159.147 733.927C161.607 737.587 166.307 736.847 168.147 733.267C174.056 731.913 180.416 732.256 186.533 732.585C187.316 732.628 188.095 732.67 188.869 732.708L190.377 732.777C198.917 733.127 207.447 733.457 215.997 733.667C233.647 734.097 251.278 734.157 268.927 734.157C292.663 734.164 316.409 733.835 340.151 733.507C351.697 733.347 363.243 733.188 374.787 733.067L398.31 732.797C461.039 732.038 523.768 730.971 586.497 730.047C606.477 729.757 626.447 729.547 646.417 729.347L690.357 728.907C693.597 728.877 696.238 728.477 698.647 727.447C698.827 727.817 699.017 728.177 699.217 728.527C701.567 732.707 707.287 734.107 711.377 731.717C713.607 730.407 714.887 728.507 715.367 726.387C715.397 726.387 715.427 726.397 715.457 726.407C716.601 720.547 715.311 714.417 714.063 708.491C713.752 707.015 713.444 705.551 713.177 704.107C711.877 697.027 710.857 689.927 709.877 682.787C707.937 668.707 706.177 654.607 704.537 640.477C701.207 611.877 697.997 583.277 695.577 554.567C693.167 526.007 691.147 497.417 689.397 468.807C695.077 468.787 700.857 468.237 706.537 467.327C709.649 467.425 712.715 466.526 715.727 465.641C716.034 465.551 716.339 465.462 716.644 465.373L717.687 465.077L718.677 464.807L720.082 464.446C722.417 463.835 724.713 463.178 726.947 462.487C727.057 462.457 727.157 462.417 727.267 462.377C730.757 461.367 734.238 460.327 737.707 459.267L738.072 459.156L738.437 459.037C735.767 491.107 737.067 523.177 739.247 555.317L739.372 557.172C741.779 593.037 743.639 629.27 752.407 664.267C754.857 674.027 757.667 683.667 760.807 693.227L761.451 695.213C762.719 699.189 763.867 703.185 765.007 707.197C765.707 709.697 766.407 712.197 767.167 714.677L767.477 715.716C767.582 716.064 767.692 716.412 767.817 716.747C768.137 717.617 768.497 718.467 768.887 719.297C769.017 720.297 769.337 721.287 769.867 722.197C772.467 726.647 778.637 727.627 782.947 725.257C788.317 722.307 790.337 716.037 788.967 710.297C787.797 705.417 785.637 700.647 783.967 695.917C782.028 690.417 780.587 684.747 779.007 679.127L778.392 676.917C775.737 667.34 773.224 657.737 771.238 647.997C762.587 605.557 761.897 561.797 756.407 518.907C753.747 498.107 750.047 477.367 744.757 457.057C755.657 453.607 766.467 449.877 777.197 445.917C782.957 443.787 787.517 437.907 785.427 431.437C775.887 402.017 765.947 372.707 756.427 343.267C747.417 315.427 738.697 287.467 729.227 259.777C712.077 209.597 686 162.428 647.367 124.277C626.036 103.212 548.007 84.4568 544.467 88.3868C543.187 89.0368 542.067 89.9968 541.207 91.4168C540.967 91.8068 541.447 92.3068 541.847 92.0568C542.037 91.9368 542.238 91.8268 542.447 91.7268C542.247 92.2868 542.077 92.8868 541.957 93.5168C540.377 91.5368 539.257 88.6368 538.057 86.5268C536.317 83.4868 534.607 80.4268 533.017 77.3068C529.717 70.8568 526.837 64.2968 524.057 57.6168C521.347 51.1268 519.028 44.5368 516.597 37.9368C515.377 34.6468 514.057 31.4068 512.917 28.0868C512.137 25.8168 511.667 23.6368 509.397 22.5468Z" transform="translate(27.00038 -17.00007)" fill="#000000" fill-rule="evenodd" stroke="none"></path></g><g transform="translate(225 0)"><g><g><path d="M333.415 93.2216C329.554 69.8624 342.226 65.0158 333.415 42.8109C313.833 1.66731 260.468 3.44007 221.308 0.276637C177.63 -1.39736 133.422 4.36885 93.1557 21.875C83.5377 26.056 74.2867 30.9732 65.4187 36.5599C57.7507 41.3913 58.8047 50.5773 63.6397 55.5884C28.7747 104.96 48.7157 171.232 20.8967 223.202C15.7577 232.491 8.96066 240.821 4.49366 250.487C-2.29634 265.18 -2.73134 286.233 12.6667 295.99C34.3537 307.631 46.4557 284.584 57.1117 317.993C110.33 434.483 217.329 441.044 318.905 380.31C327.693 375.422 336.662 369.897 343.298 362.217C358.361 345.266 356.587 321.428 356.92 300.259C357.106 287.854 357.137 275.447 357.016 263.039C356.542 212.781 339.885 143.065 333.415 93.2216Z" transform="translate(52 80)" fill="#FFFFFF" stroke="none"></path><path d="M328.858 2.05735C261.958 -4.86265 192.397 5.68736 131.067 33.5074C98.6176 48.2274 68.8166 68.4874 42.6976 92.7374C37.9276 91.3974 32.7076 91.1174 28.3676 91.8674C21.2676 93.0974 14.7676 97.1574 10.5076 102.957C4.02762 111.757 4.25762 122.977 9.17762 131.897C8.39662 132.526 7.67762 133.247 7.01762 134.026C1.82762 140.217 2.36762 148.207 6.17762 154.977C7.24342 156.875 9.16081 158.976 11.1901 161.199C15.3299 165.734 19.9355 170.779 18.7276 175.657C17.9176 178.967 14.9776 182.067 13.2676 184.977C11.1376 188.597 9.33762 192.377 7.73762 196.257C-4.71818 226.333 -0.00202393 258.647 7.02466 289.34L7.65708 292.088C9.04719 298.235 10.3267 305.444 12.6176 312.087C-4.37238 335.487 -0.292376 375.167 27.4976 388.417C34.3276 391.677 41.9276 393.517 49.5176 393.267C53.4776 393.127 57.6076 392.587 61.3576 391.287C63.2276 390.637 65.0776 389.807 66.5276 388.477C70.0076 406.887 77.9576 423.847 87.9476 439.797C93.5776 448.767 100.108 457.727 107.668 465.177C115.658 473.037 129.448 480.717 139.189 471.047C142.508 467.757 141.439 462.647 137.788 460.207C130.948 455.607 123.708 452.787 117.668 446.937C110.948 440.427 104.588 433.397 98.5876 426.227C90.0312 416.005 82.5119 404.857 75.1567 393.666L69.1576 384.517C69.171 384.487 69.1821 384.457 69.1921 384.427L69.2476 384.237C69.2636 384.143 69.2788 384.052 69.2933 383.963L69.4386 383.026C69.4725 382.954 69.5155 382.863 69.5663 382.753L69.8076 382.207C71.6466 378.677 69.3576 374.617 65.3576 374.446C64.0719 374.446 63.8943 374.407 64.8177 374.321L65.1976 374.287C63.8276 373.487 62.3476 373.087 60.7476 373.087C58.8776 373.087 57.0976 373.727 55.3076 374.167C52.6676 374.817 50.3166 375.276 47.5976 375.267C42.0176 375.247 36.6376 373.637 31.9276 370.667C21.0476 363.807 17.9076 349.097 19.6676 337.057C20.1676 333.647 20.9876 330.427 22.1576 327.427C23.6076 328.657 25.2276 329.707 27.0376 330.557C27.3076 330.687 27.5276 330.317 27.2776 330.147C25.5076 329.007 23.9876 327.647 22.6886 326.127C25.9476 318.507 31.4576 312.337 39.2876 308.007C44.2276 305.276 49.8076 303.977 55.2976 304.167C55.3166 304.327 55.3476 304.487 55.3776 304.647C55.9783 307.776 57.4624 309.353 59.6223 311.246L60.3966 311.917C63.3476 314.437 67.1276 314.207 69.5076 311.837L69.5666 311.917C70.3276 311.167 70.9776 310.467 71.5376 309.776C72.6466 310.607 73.6976 311.537 74.6886 312.567C75.0576 312.946 75.6776 312.457 75.4276 311.997C74.6466 310.587 73.7676 309.257 72.7876 308.026C74.0576 305.907 74.5476 303.667 74.5576 300.387C74.5642 297.003 74.4699 293.608 74.3758 290.218C74.3414 288.98 74.307 287.743 74.2776 286.507C74.0666 277.577 73.6076 268.647 73.2576 259.717C73.1717 257.481 72.9894 255.167 72.8046 252.821C72.3654 247.245 71.9123 241.493 72.7076 236.207C73.3663 231.834 76.0088 230.809 79.648 229.747L84.3783 228.38C95.5003 225.123 106.766 221.046 109.178 207.897C110.675 199.71 108.189 192.058 105.694 184.378C103.907 178.879 102.116 173.364 101.778 167.627C101.058 155.577 104.758 143.307 111.608 133.337C118.248 135.057 124.858 136.887 131.608 138.237C140.948 140.117 150.317 141.797 159.718 143.317C178.189 146.307 196.718 148.696 215.388 150.087C252.808 152.867 290.508 151.467 327.628 145.877C332.908 145.087 338.168 144.157 343.388 143.007C343.358 143.897 343.317 144.797 343.268 145.696C342.978 150.717 342.838 155.707 342.828 160.727C342.658 162.037 342.698 163.457 342.939 165.007L343.218 166.817C343.418 168.077 343.918 169.227 344.658 170.237C346.439 198.037 350.189 225.687 353.758 253.327L354.608 259.939C358.846 293 362.863 326.098 366.238 359.257C366.538 362.197 366.894 365.184 367.254 368.201C368.86 381.673 370.537 395.733 367.588 408.797C364.668 421.767 356.388 431.847 346.078 439.907C321.848 458.877 291.468 471.398 261.888 479.077C246.048 483.187 228.918 487.287 212.468 487.097C206.578 487.026 200.328 486.317 194.939 483.776C190.335 481.617 187.444 477.727 184.805 473.541L184.298 472.727C182.098 469.177 175.678 469.377 174.788 473.967C172.138 487.557 184.439 496.017 196.168 499.297C209.517 503.032 223.421 501.296 236.916 499.236L239.248 498.877C274.208 493.457 307.478 481.776 339.088 466.087C353.078 459.147 366.088 449.797 375.628 437.317C386.258 423.397 389.548 406.927 388.618 389.677C387.578 370.667 384.578 351.607 382.178 332.737L381.43 326.903C379.178 309.4 376.826 291.908 374.198 274.457C369.168 241.026 363.718 207.397 354.698 174.776C354.897 174.757 355.098 174.737 355.298 174.707C360.998 173.847 364.358 169.497 364.848 163.887L365.768 153.357L366.267 153.389C382.813 154.407 404.315 152.364 411.948 135.227C414.608 129.257 415.278 122.627 414.038 116.637C425.078 113.776 435.328 107.807 443.228 99.5574C447.328 95.2764 447.038 89.0874 443.228 84.7474C440.968 82.1574 438.558 79.8374 436.018 77.7574C443.228 75.1964 449.988 70.3974 453.748 63.7074C458.588 55.0974 456.689 44.5574 449.918 37.5874C444.1 31.5899 435.848 28.6654 428.193 25.719L425.475 24.6686C394.464 12.7839 361.878 5.46756 328.858 2.05735ZM54.9381 328.377C45.4381 327.567 37.7381 330.787 30.7671 336.937C30.0781 337.537 30.8371 338.477 31.5971 338.347C38.5071 337.127 46.6771 338.497 53.2781 340.627C60.6271 343.007 64.5781 348.007 70.4981 352.437C76.9981 357.297 86.0281 347.807 81.5971 341.337C75.9881 333.147 64.4881 329.196 54.9381 328.377Z" transform="translate(37.99998 0.0003450957)" fill="#000000" fill-rule="evenodd" stroke="none"></path></g></g><g transform="translate(159 186)"><g><path d="M140.63 0.473197L139.193 0.179116C137.503 -0.15929 135.804 -0.0161244 134.311 0.591153C132.847 1.18684 131.572 2.2242 130.68 3.72083C129.495 5.71373 129.337 7.38618 129.887 9.59525C130.311 11.3022 131.242 12.5864 132.46 13.5139C133.744 14.4911 135.37 15.0612 137.06 15.2595C144.854 16.175 152.53 17.8896 159.992 20.3235C163.488 21.4643 166.788 23.0096 170.058 24.6132L172.877 26.002C175.477 27.2735 178.163 28.499 181.557 29.3885C181.824 29.4584 182.087 29.5243 182.349 29.5865C183.29 29.2909 183.45 28.9329 183.649 28.6733L183.73 28.5721C183.972 28.2679 184.271 27.8025 183.988 25.6306C176.583 10.2711 156.267 3.74181 140.63 0.473197ZM43.5878 4.83023L45.4652 4.50163C51.273 3.49719 58.4944 2.53203 62.6028 7.20123C64.7819 9.67723 65.5318 14.2792 62.6028 16.6492C58.7671 19.7539 54.6298 19.6513 50.2182 19.5419C48.7043 19.5044 47.1582 19.466 45.5808 19.5562C40.4928 19.8482 35.6028 20.6902 30.7018 22.0912C19.9498 25.1642 11.1888 30.7742 2.00585 36.9342C0.800849 37.7422 -0.429151 36.2012 0.145849 35.0742C5.44685 24.6912 15.7198 16.1622 26.0098 10.9632C31.5019 8.18823 37.5118 5.88623 43.5878 4.83023ZM29.9632 50.1461C30.7976 39.7899 46.5702 37.4381 48.1392 47.6861C49.5442 56.8661 47.8902 65.2991 43.7552 73.5641C39.8042 81.4601 29.8737 77.7763 29.1227 70.5863C28.3809 63.4843 28.9069 59.2482 29.4428 54.933C29.6341 53.3921 29.8267 51.8412 29.9632 50.1461ZM159.205 41.8262C155.401 40.7152 152.226 42.6812 150.027 45.5612C149.773 45.8932 149.566 46.2222 149.38 46.5482C142.515 52.8562 145.101 65.6452 150.501 72.0492C153.814 75.9762 161.145 74.8452 163.413 70.3852C167.587 62.1722 171.09 45.2992 159.205 41.8262ZM128.748 119.039C136.872 107.66 125.366 96.9569 117.814 92.3669C115.836 90.9469 117.406 86.2431 121.634 86.9701C160.031 93.5671 140.136 159.708 91.112 123.413C85.2754 118.704 92.3434 108.334 98.6342 112.366C98.9532 112.611 99.2876 112.869 99.6364 113.139C106.704 118.603 119.636 128.601 128.748 119.039ZM93.5865 188.926C86.8642 186.184 80.8663 181.61 76.4812 175.766C74.9566 173.735 74.5614 171.589 74.8812 169.627C75.2408 167.421 76.546 165.422 78.326 164.08C80.1115 162.735 82.345 162.072 84.5043 162.41C86.3806 162.704 88.2484 163.731 89.7265 165.862L90.0354 166.288C92.6424 169.815 96.0396 172.708 99.9104 174.574C103.641 176.372 107.814 177.211 112.132 176.723C120.356 175.794 126.024 171.346 132.049 165.306C132.796 164.544 133.543 163.757 134.294 162.958C134.768 162.234 135.426 161.768 136.157 161.524C136.968 161.253 137.886 161.268 138.726 161.562C139.537 161.845 140.262 162.381 140.747 163.094C141.209 163.772 141.471 164.61 141.386 165.574C140.835 171.833 137.562 177.419 132.914 181.805C127.752 186.677 120.909 190.047 114.466 191.229C107.368 192.531 100.136 191.598 93.5865 188.926Z" transform="translate(53.00005 52.00027)" fill="#000000" fill-rule="evenodd" stroke="none"></path></g></g><g transform="translate(123 338)"></g><g transform="translate(47 241)"><g><path d="M316.813 3.10942C324.946 1.29242 394.509 -7.19658 396.465 14.9734C398.027 18.5324 397.593 37.5744 390.851 31.9324C373.772 44.8104 378.699 69.5144 366.274 85.8844C349.797 109.469 295.046 106.723 288.055 38.6864C281.114 35.9151 274.999 37.0109 268.751 38.1307C265.935 38.6352 263.093 39.1447 260.135 39.3074C269.752 111.531 152.497 141.921 143.304 53.8704C141.966 42.4674 138.517 43.4774 128.359 40.2094C126.53 39.8254 124.439 39.4604 122.435 38.8834C119.102 39.9934 117.307 38.4075 114.671 36.0782C106.929 29.2369 91.9299 15.9829 9.37509 45.7834C9.28609 50.3874 6.06709 52.6614 2.84509 50.4264C-18.3829 21.4114 85.4011 13.5744 108.135 14.3954C112.562 13.1234 116.74 12.4004 120.176 13.7484C138.328 -0.852581 224.917 -9.07258 250.63 19.5904C267.763 24.9805 282.206 18.1835 296.811 11.31C303.36 8.22787 309.942 5.13039 316.813 3.10942ZM368.291 12.4564C368.281 12.4694 368.269 12.4804 368.259 12.4934C368.182 12.4464 368.106 12.3984 368.027 12.3524C368.114 12.3884 368.206 12.4194 368.291 12.4564ZM351.985 88.3954C336.977 95.6234 316.039 84.9624 305.948 73.7954C302.275 69.7294 299.441 58.0964 300.854 50.7184C304.681 30.7374 319.061 18.7454 334.242 14.6504C355.286 8.97242 376.464 23.3564 373.995 40.3304C371.654 56.4174 368.107 79.7524 351.985 88.3954ZM210.244 96.4944C231.144 90.8474 248.631 71.7884 249.834 50.0134C250.295 40.7774 247.593 31.6544 240.983 25.3334C218.401 18.1694 173.188 13.7214 154.605 39.8164C149.88 46.4504 151.641 54.1844 152.39 56.7184C159.928 82.2194 176.57 105.89 210.244 96.4944Z" transform="translate(1.000312 17.99998)" fill="#000000" fill-rule="evenodd" stroke="none"></path></g></g></g></g></svg>
